<svg xmlns="http://www.w3.org/2000/svg" viewBox="0 0 48 48" width="48" height="48" fill="currentColor"><path d="M5.3 15.3L5.6 14.7L6 14.1L6.3 13.5L6.7 12.9L7.1 12.4L7.5 11.8L7.9 11.3L8.4 10.8L8.8 10.2L9.3 9.8L9.8 9.3L10.3 8.8L10.8 8.4L11.4 8L11.9 7.6L12.5 7.2L13.1 6.8L13.7 6.5L14.2 6.1L14.9 5.9L15.5 5.6L16.1 5.3L16.7 5.1L17.4 4.8L18 4.6L18.7 4.5L19.3 4.3L20 4.2L20.7 4.1L21.3 4L22 3.9L22.7 3.8L23.3 3.8L24 3.8L24.7 3.8L25.4 3.9L26 4L26.7 4L27.4 4.1L28 4.3L28.7 4.4L29.3 4.6L30 4.8L30.6 5L31.2 5.3L31.9 5.5L32.5 5.8L33.1 6.1L33.7 6.4L34.2 6.7L34.8 7.1L35.4 7.5L35.9 7.9L36.4 8.3L36.9 8.7L37.4 9.2L37.9 9.6L38.4 10.1L38.9 10.6L39.3 11.1L39.7 11.6L40.1 12.1L40.5 12.7L40.9 13.2L41.2 13.8L41.5 14.4L41.8 15L42.1 15.6L42.4 16.2L42.7 16.8L42.9 17.4L43.1 18.1L43.3 18.7L43.5 19.4L43.6 20L43.7 20.7L43.8 21.3L43.9 22L43.9 22.7L44 23.3L44 24L44 24.7L44 25.3L43.9 26L43.8 26.7L43.7 27.3L43.6 28L43.5 28.6L43.3 29.3L43.1 29.9L42.9 30.6L42.7 31.2L42.5 31.8L42.2 32.4L41.9 33L41.6 33.6L41.3 34.2L40.9 34.8L40.5 35.3L40.2 35.9L39.8 36.4L39.3 36.9L38.9 37.5L38.5 37.9L38 38.4L37.5 38.9L37 39.3L36.5 39.8L36 40.2L35.4 40.6L34.9 41L34.3 41.3L33.7 41.7L33.1 42L32.5 42.3L31.9 42.6L31.3 42.8L30.7 43.1L30 43.3L29.4 43.5L28.7 43.7L28.1 43.8L27.4 44L26.7 44.1L26.1 44.2L25.4 44.2L24.7 44.3L24 44.3L23.4 44.3L22.7 44.3L22 44.3L21.3 44.3L20.6 44.2L20 44.1L19.3 44L18.6 43.9L17.9 43.7L17.3 43.5L16.6 43.3L15.9 43.1L15.3 42.9L14.7 42.6L14 42.3L13.4 42L12.8 41.6L12.2 41.3L11.6 40.9L11 40.5L10.5 40L9.9 39.6L9.9 39.6L10.5 40.1L11 40.5L11.6 41L12.1 41.4L12.7 41.8L13.3 42.2L13.9 42.6L14.5 42.9L15.1 43.3L15.7 43.6L16.4 43.9L17 44.1L17.7 44.4L18.4 44.6L19.1 44.9L19.8 45L20.5 45.2L21.2 45.4L21.9 45.5L22.6 45.6L23.3 45.7L24 45.7L24.8 45.7L25.5 45.6L26.2 45.6L26.9 45.5L27.6 45.4L28.4 45.3L29.1 45.2L29.8 45L30.5 44.8L31.2 44.6L31.9 44.3L32.5 44.1L33.2 43.8L33.9 43.5L34.5 43.1L35.2 42.8L35.8 42.4L36.4 42L37 41.6L37.6 41.1L38.1 40.7L38.7 40.2L39.2 39.7L39.8 39.2L40.3 38.7L40.7 38.1L41.2 37.6L41.7 37L42.1 36.4L42.5 35.8L42.9 35.2L43.2 34.5L43.6 33.9L43.9 33.2L44.2 32.6L44.5 31.9L44.8 31.2L45 30.5L45.2 29.8L45.4 29.1L45.5 28.4L45.7 27.6L45.8 26.9L45.9 26.2L45.9 25.5L46 24.7L46 24L46 23.3L45.9 22.5L45.9 21.8L45.8 21.1L45.7 20.3L45.5 19.6L45.4 18.9L45.2 18.2L45 17.5L44.8 16.8L44.5 16.1L44.2 15.4L43.9 14.7L43.6 14.1L43.3 13.4L42.9 12.8L42.5 12.2L42.1 11.6L41.7 11L41.2 10.4L40.8 9.8L40.3 9.3L39.8 8.7L39.3 8.2L38.7 7.7L38.2 7.2L37.6 6.8L37 6.3L36.4 5.9L35.8 5.5L35.2 5.1L34.5 4.8L33.9 4.5L33.2 4.1L32.6 3.8L31.9 3.6L31.2 3.3L30.5 3.1L29.8 2.9L29.1 2.7L28.4 2.6L27.7 2.5L26.9 2.4L26.2 2.3L25.5 2.2L24.7 2.2L24 2.2L23.3 2.2L22.6 2.3L21.8 2.3L21.1 2.4L20.4 2.5L19.7 2.7L19 2.9L18.3 3L17.6 3.3L16.9 3.5L16.2 3.7L15.6 4L14.9 4.3L14.3 4.7L13.6 5L13 5.4L12.4 5.8L11.8 6.2L11.2 6.6L10.6 7L10.1 7.5L9.6 8L9 8.5L8.5 9L8.1 9.5L7.6 10.1L7.2 10.7L6.7 11.2L6.3 11.8L5.9 12.4L5.6 13L5.2 13.7L4.9 14.3L4.6 15Z"/><path d="M24.3 35.8L23.9 35.2L23.5 34.6L23.1 34L22.8 33.4L22.4 32.8L22 32.2L21.6 31.7L21.2 31.1L20.9 30.5L20.6 29.9L20.2 29.3L20 28.7L19.7 28.1L19.5 27.4L19.3 26.8L19.1 26.2L19 25.6L18.9 25L18.9 24.3L18.9 23.2L18.3 22.8L18.3 22.5L18.2 21.9L18.2 21.3L18.2 20.7L18.3 20.1L18.4 19.5L18.6 19L18.8 18.5L19.1 18L19.5 17.5L19.8 17.1L20.3 16.7L20.7 16.3L21.2 16L21.7 15.8L22.3 15.6L22.8 15.4L23.4 15.3L23.9 15.3L24.5 15.3L25.1 15.4L25.6 15.5L26.2 15.7L26.7 16L27.2 16.3L27.7 16.6L28.1 17L28.5 17.4L28.8 17.9L29.1 18.4L29.4 18.9L29.6 19.4L29.7 20L29.8 20.6L29.9 21.2L29.8 21.8L29.7 22.4L29.8 22.6L29.2 23.1L29.1 24.2L29.1 24.9L29.1 25.5L29 26.1L28.8 26.7L28.6 27.4L28.4 28L28.1 28.6L27.9 29.2L27.7 29.9L27.4 30.5L27.1 31.1L26.8 31.8L26.4 32.4L26.1 33L25.7 33.6L25.4 34.2L25 34.8L24.6 35.4L24.6 35.4L25 34.9L25.5 34.3L26 33.8L26.4 33.2L26.9 32.7L27.4 32.2L27.8 31.6L28.3 31.1L28.7 30.5L29.2 29.9L29.6 29.3L30 28.7L30.3 28L30.5 27.3L30.8 26.5L31 25.8L31.1 25L31.1 24.2L31 24L31.5 23.9L31.9 22.9L32 22.1L32.1 21.2L32.1 20.4L32 19.6L31.9 18.8L31.6 18L31.3 17.3L30.9 16.5L30.4 15.9L29.9 15.2L29.3 14.7L28.6 14.1L27.9 13.7L27.2 13.3L26.4 13.1L25.6 12.9L24.8 12.7L23.9 12.7L23.1 12.8L22.3 12.9L21.5 13.1L20.7 13.4L19.9 13.8L19.2 14.2L18.6 14.7L18 15.3L17.5 16L17 16.7L16.6 17.4L16.3 18.1L16.1 18.9L15.9 19.8L15.8 20.6L15.9 21.4L16 22.2L16.1 23L16.5 24L16.9 24.1L16.8 24.4L16.9 25.2L17 25.9L17.2 26.7L17.5 27.4L17.8 28.1L18.1 28.8L18.4 29.5L18.8 30.1L19.2 30.7L19.6 31.3L20.1 31.9L20.5 32.4L20.9 33L21.4 33.6L21.8 34.1L22.3 34.6L22.8 35.2L23.2 35.7L23.7 36.2Z"/><circle cx="24" cy="21" r="2.2"/><path d="M35.5 9Q36.1 11.9 39 12.5Q36.1 13.1 35.5 16Q34.9 13.1 32 12.5Q34.9 11.9 35.5 9Z" fill="var(--icon-accent, currentColor)"/></svg>
